<svg xmlns="http://www.w3.org/2000/svg" viewBox="0 0 256 258.66" fill="currentColor" class="size-7 fill-foreground">
    <path
        class="cls-1"
        d="M192,110.86V36.95L128,0l-64,36.95v73.91L0,147.81v73.9l64,36.95,64-36.95,64,36.95,64-36.95v-73.9l-64-36.95ZM20,147.81l44-25.41,44,25.41-44,25.4-44-25.4ZM118,215.93l-44,25.41v-50.81l44-25.4v50.8ZM84,36.95l44-25.4,44,25.4-44,25.41-44-25.41ZM138,79.68l44-25.41v50.81l-44,25.41v-50.81ZM148,147.81l44-25.41,44,25.41-44,25.4-44-25.4ZM246,215.93l-44,25.41v-50.81l44-25.4v50.8Z"
    />
</svg>